# xmcd CD database file
# Copyright (C) 1997 Ti Kan
# 
# Track frame offsets:
#     182
#     12790
#     35165
#     53727
#     70515
#     89542
#     100445
#     113007
#     130817
#     146157
#     160580
#     174130
#     193857
#     208647
#     220550
#     233492
#     244580
#     260717
#     273775
#     284540
# 
# Disc length: 3974 seconds
# 
# Revision: 1
# Processed by: cddbd v1.4b41PL1 Copyright (c) Steve Scherf et al.
# Submitted via: DiscPlay 4.0.4
# 
DISCID=180f8414
DTITLE=Percy Sledge,Johnny Cash,B.J.Thomas - OLDIES Heartbreakers 2
DYEAR=1900
DGENRE=
TTITLE0=Cover me
TTITLE1=Unchained melody
TTITLE2=Only yesterday
TTITLE3=Blue boyou
TTITLE4=A man can't lose
TTITLE5=Cold cold heart
TTITLE6=Mrs. Brown you've got a lovely daughter
TTITLE7=I still believe
TTITLE8=When love goes wrong
TTITLE9=Here it comes again
TTITLE10=Three coins in a fountain
TTITLE11=Lay it down
TTITLE12=Warm and tender love
TTITLE13=Lady Willpower
TTITLE14=Peggy Sue
TTITLE15=Surfer girl
TTITLE16=Lonely this Christmas
TTITLE17=No love at all
TTITLE18=Walk in the room
TTITLE19=Oh girl
EXTD=
EXTT0=
EXTT1=
EXTT2=
EXTT3=
EXTT4=
EXTT5=
EXTT6=
EXTT7=
EXTT8=
EXTT9=
EXTT10=
EXTT11=
EXTT12=
EXTT13=
EXTT14=
EXTT15=
EXTT16=
EXTT17=
EXTT18=
EXTT19=
PLAYORDER=
